<svg xmlns="http://www.w3.org/2000/svg" width="24" height="24" viewBox="168 163 688 688"><defs><mask id="seams" maskUnits="userSpaceOnUse" x="0" y="0" width="1024" height="1024"><rect width="1024" height="1024" fill="white"/><path d="M208 400A304 76 0 0 0 816 400" fill="none" stroke="black" stroke-width="28"/><path d="M208 564A304 76 0 0 0 816 564" fill="none" stroke="black" stroke-width="28"/></mask></defs><g fill="currentColor" mask="url(#seams)"><path d="M208 286V400A304 76 0 0 0 816 400V286A304 76 0 0 0 208 286Z"/><path d="M208 450V564A304 76 0 0 0 816 564V450A304 76 0 0 0 208 450Z"/><path d="M208 614V728A304 76 0 0 0 816 728V614A304 76 0 0 0 208 614Z"/></g></svg>
