<svg xmlns="http://www.w3.org/2000/svg" width="1024" height="1024" viewBox="0 0 1024 1024"><defs><clipPath id="tile"><path d="M1024.00 512.00L1023.97 613.39L1023.88 645.78L1023.72 669.32L1023.50 688.48L1023.22 704.92L1022.88 719.47L1022.47 732.61L1022.00 744.64L1021.47 755.78L1020.87 766.18L1020.22 775.94L1019.49 785.16L1018.71 793.91L1017.86 802.23L1016.95 810.17L1015.97 817.78L1014.93 825.07L1013.83 832.08L1012.65 838.83L1011.42 845.34L1010.12 851.63L1008.75 857.70L1007.31 863.58L1005.81 869.27L1004.24 874.78L1002.61 880.13L1000.90 885.33L999.13 890.37L997.29 895.26L995.37 900.02L993.39 904.65L991.33 909.15L989.21 913.53L987.01 917.78L984.73 921.93L982.38 925.96L979.96 929.88L977.46 933.70L974.88 937.42L972.23 941.04L969.49 944.56L966.67 947.99L963.77 951.32L960.79 954.57L957.72 957.72L954.57 960.79L951.32 963.77L947.99 966.67L944.56 969.49L941.04 972.23L937.42 974.88L933.70 977.46L929.88 979.96L925.96 982.38L921.93 984.73L917.78 987.01L913.53 989.21L909.15 991.33L904.65 993.39L900.02 995.37L895.26 997.29L890.37 999.13L885.33 1000.90L880.13 1002.61L874.78 1004.24L869.27 1005.81L863.58 1007.31L857.70 1008.75L851.63 1010.12L845.34 1011.42L838.83 1012.65L832.08 1013.83L825.07 1014.93L817.78 1015.97L810.17 1016.95L802.23 1017.86L793.91 1018.71L785.16 1019.49L775.94 1020.22L766.18 1020.87L755.78 1021.47L744.64 1022.00L732.61 1022.47L719.47 1022.88L704.92 1023.22L688.48 1023.50L669.32 1023.72L645.78 1023.88L613.39 1023.97L512.00 1024.00L410.61 1023.97L378.22 1023.88L354.68 1023.72L335.52 1023.50L319.08 1023.22L304.53 1022.88L291.39 1022.47L279.36 1022.00L268.22 1021.47L257.82 1020.87L248.06 1020.22L238.84 1019.49L230.09 1018.71L221.77 1017.86L213.83 1016.95L206.22 1015.97L198.93 1014.93L191.92 1013.83L185.17 1012.65L178.66 1011.42L172.37 1010.12L166.30 1008.75L160.42 1007.31L154.73 1005.81L149.22 1004.24L143.87 1002.61L138.67 1000.90L133.63 999.13L128.74 997.29L123.98 995.37L119.35 993.39L114.85 991.33L110.47 989.21L106.22 987.01L102.07 984.73L98.04 982.38L94.12 979.96L90.30 977.46L86.58 974.88L82.96 972.23L79.44 969.49L76.01 966.67L72.68 963.77L69.43 960.79L66.28 957.72L63.21 954.57L60.23 951.32L57.33 947.99L54.51 944.56L51.77 941.04L49.12 937.42L46.54 933.70L44.04 929.88L41.62 925.96L39.27 921.93L36.99 917.78L34.79 913.53L32.67 909.15L30.61 904.65L28.63 900.02L26.71 895.26L24.87 890.37L23.10 885.33L21.39 880.13L19.76 874.78L18.19 869.27L16.69 863.58L15.25 857.70L13.88 851.63L12.58 845.34L11.35 838.83L10.17 832.08L9.07 825.07L8.03 817.78L7.05 810.17L6.14 802.23L5.29 793.91L4.51 785.16L3.78 775.94L3.13 766.18L2.53 755.78L2.00 744.64L1.53 732.61L1.12 719.47L0.78 704.92L0.50 688.48L0.28 669.32L0.12 645.78L0.03 613.39L0.00 512.00L0.03 410.61L0.12 378.22L0.28 354.68L0.50 335.52L0.78 319.08L1.12 304.53L1.53 291.39L2.00 279.36L2.53 268.22L3.13 257.82L3.78 248.06L4.51 238.84L5.29 230.09L6.14 221.77L7.05 213.83L8.03 206.22L9.07 198.93L10.17 191.92L11.35 185.17L12.58 178.66L13.88 172.37L15.25 166.30L16.69 160.42L18.19 154.73L19.76 149.22L21.39 143.87L23.10 138.67L24.87 133.63L26.71 128.74L28.63 123.98L30.61 119.35L32.67 114.85L34.79 110.47L36.99 106.22L39.27 102.07L41.62 98.04L44.04 94.12L46.54 90.30L49.12 86.58L51.77 82.96L54.51 79.44L57.33 76.01L60.23 72.68L63.21 69.43L66.28 66.28L69.43 63.21L72.68 60.23L76.01 57.33L79.44 54.51L82.96 51.77L86.58 49.12L90.30 46.54L94.12 44.04L98.04 41.62L102.07 39.27L106.22 36.99L110.47 34.79L114.85 32.67L119.35 30.61L123.98 28.63L128.74 26.71L133.63 24.87L138.67 23.10L143.87 21.39L149.22 19.76L154.73 18.19L160.42 16.69L166.30 15.25L172.37 13.88L178.66 12.58L185.17 11.35L191.92 10.17L198.93 9.07L206.22 8.03L213.83 7.05L221.77 6.14L230.09 5.29L238.84 4.51L248.06 3.78L257.82 3.13L268.22 2.53L279.36 2.00L291.39 1.53L304.53 1.12L319.08 0.78L335.52 0.50L354.68 0.28L378.22 0.12L410.61 0.03L512.00 0.00L613.39 0.03L645.78 0.12L669.32 0.28L688.48 0.50L704.92 0.78L719.47 1.12L732.61 1.53L744.64 2.00L755.78 2.53L766.18 3.13L775.94 3.78L785.16 4.51L793.91 5.29L802.23 6.14L810.17 7.05L817.78 8.03L825.07 9.07L832.08 10.17L838.83 11.35L845.34 12.58L851.63 13.88L857.70 15.25L863.58 16.69L869.27 18.19L874.78 19.76L880.13 21.39L885.33 23.10L890.37 24.87L895.26 26.71L900.02 28.63L904.65 30.61L909.15 32.67L913.53 34.79L917.78 36.99L921.93 39.27L925.96 41.62L929.88 44.04L933.70 46.54L937.42 49.12L941.04 51.77L944.56 54.51L947.99 57.33L951.32 60.23L954.57 63.21L957.72 66.28L960.79 69.43L963.77 72.68L966.67 76.01L969.49 79.44L972.23 82.96L974.88 86.58L977.46 90.30L979.96 94.12L982.38 98.04L984.73 102.07L987.01 106.22L989.21 110.47L991.33 114.85L993.39 119.35L995.37 123.98L997.29 128.74L999.13 133.63L1000.90 138.67L1002.61 143.87L1004.24 149.22L1005.81 154.73L1007.31 160.42L1008.75 166.30L1010.12 172.37L1011.42 178.66L1012.65 185.17L1013.83 191.92L1014.93 198.93L1015.97 206.22L1016.95 213.83L1017.86 221.77L1018.71 230.09L1019.49 238.84L1020.22 248.06L1020.87 257.82L1021.47 268.22L1022.00 279.36L1022.47 291.39L1022.88 304.53L1023.22 319.08L1023.50 335.52L1023.72 354.68L1023.88 378.22L1023.97 410.61Z"/></clipPath><linearGradient id="tileFill" x1="0" y1="0" x2="1" y2="1"><stop offset="0" stop-color="#1b1b1d"/><stop offset=".45" stop-color="#0a0a0b"/><stop offset="1" stop-color="#030303"/></linearGradient><radialGradient id="tileSheen" cx="512" cy="-120" r="760" gradientUnits="userSpaceOnUse"><stop offset="0" stop-color="#fff" stop-opacity=".14"/><stop offset=".55" stop-color="#fff" stop-opacity=".03"/><stop offset="1" stop-color="#fff" stop-opacity="0"/></radialGradient><linearGradient id="tileRim" x1="0" y1="0" x2="0" y2="1"><stop offset="0" stop-color="#fff" stop-opacity=".34"/><stop offset=".18" stop-color="#fff" stop-opacity=".08"/><stop offset=".8" stop-color="#fff" stop-opacity=".03"/><stop offset="1" stop-color="#fff" stop-opacity=".12"/></linearGradient><filter id="blur2" x="-10%" y="-10%" width="120%" height="120%"><feGaussianBlur stdDeviation="2"/></filter><filter id="blur6" x="-20%" y="-40%" width="140%" height="180%"><feGaussianBlur stdDeviation="6"/></filter><filter id="blur14" x="-30%" y="-60%" width="160%" height="220%"><feGaussianBlur stdDeviation="14"/></filter><filter id="aura" x="-50%" y="-50%" width="200%" height="200%"><feGaussianBlur stdDeviation="46"/></filter><linearGradient id="fade" x1="208" x2="816" y1="0" y2="0" gradientUnits="userSpaceOnUse"><stop offset="0" stop-color="#fff" stop-opacity=".25"/><stop offset=".3" stop-color="#fff"/><stop offset=".7" stop-color="#fff"/><stop offset="1" stop-color="#fff" stop-opacity=".25"/></linearGradient><mask id="fadeMask" maskUnits="userSpaceOnUse" x="0" y="0" width="1024" height="1024"><rect width="1024" height="1024" fill="url(#fade)"/></mask><clipPath id="slab2Body"><path d="M208 614V728A304 76 0 0 0 816 728V614A304 76 0 0 0 208 614Z"/></clipPath><clipPath id="slab2Top"><ellipse cx="512" cy="614" rx="304" ry="76"/></clipPath><linearGradient id="slab2Side" x1="208" x2="816" y1="0" y2="0" gradientUnits="userSpaceOnUse"><stop offset="0" stop-color="rgb(87,87,90)"/><stop offset="0.035" stop-color="rgb(136,136,139)"/><stop offset="0.13" stop-color="rgb(159,159,162)"/><stop offset="0.28" stop-color="rgb(172,172,175)"/><stop offset="0.46" stop-color="rgb(160,160,163)"/><stop offset="0.64" stop-color="rgb(142,142,145)"/><stop offset="0.82" stop-color="rgb(125,125,128)"/><stop offset="0.93" stop-color="rgb(119,119,122)"/><stop offset="0.975" stop-color="rgb(140,140,143)"/><stop offset="1" stop-color="rgb(94,94,97)"/></linearGradient><linearGradient id="slab2Shade" x1="0" x2="0" y1="614" y2="804" gradientUnits="userSpaceOnUse"><stop offset="0" stop-color="#fff" stop-opacity=".18"/><stop offset=".2" stop-color="#fff" stop-opacity="0"/><stop offset=".55" stop-color="#000" stop-opacity=".13"/><stop offset=".84" stop-color="#fff" stop-opacity=".05"/><stop offset="1" stop-color="#fff" stop-opacity=".24"/></linearGradient><linearGradient id="slab2Face" x1="208" y1="538" x2="816" y2="690" gradientUnits="userSpaceOnUse"><stop offset="0" stop-color="rgb(194,194,197)"/><stop offset=".55" stop-color="rgb(175,175,178)"/><stop offset="1" stop-color="rgb(159,159,162)"/></linearGradient><radialGradient id="slab2Depth" cx="512" cy="620" r="304" gradientUnits="userSpaceOnUse" gradientTransform="translate(512 620) scale(1 0.25) translate(-512 -620)"><stop offset="0" stop-color="#000" stop-opacity=".07"/><stop offset=".72" stop-color="#000" stop-opacity="0"/><stop offset=".93" stop-color="#fff" stop-opacity=".14"/><stop offset="1" stop-color="#fff" stop-opacity=".3"/></radialGradient><radialGradient id="slab2Specular" cx="442" cy="586" r="230" gradientUnits="userSpaceOnUse" gradientTransform="translate(442 586) scale(1 0.26) translate(-442 -586)"><stop offset="0" stop-color="#fff" stop-opacity=".75"/><stop offset="1" stop-color="#fff" stop-opacity="0"/></radialGradient><linearGradient id="slab2Bevel" x1="0" x2="0" y1="538" y2="690" gradientUnits="userSpaceOnUse"><stop offset="0" stop-color="#fff" stop-opacity=".95"/><stop offset=".5" stop-color="#fff" stop-opacity=".35"/><stop offset="1" stop-color="#fff" stop-opacity=".9"/></linearGradient><clipPath id="slab1Body"><path d="M208 450V564A304 76 0 0 0 816 564V450A304 76 0 0 0 208 450Z"/></clipPath><clipPath id="slab1Top"><ellipse cx="512" cy="450" rx="304" ry="76"/></clipPath><linearGradient id="slab1Side" x1="208" x2="816" y1="0" y2="0" gradientUnits="userSpaceOnUse"><stop offset="0" stop-color="rgb(102,102,105)"/><stop offset="0.035" stop-color="rgb(160,160,163)"/><stop offset="0.13" stop-color="rgb(186,186,189)"/><stop offset="0.28" stop-color="rgb(202,202,205)"/><stop offset="0.46" stop-color="rgb(189,189,192)"/><stop offset="0.64" stop-color="rgb(166,166,169)"/><stop offset="0.82" stop-color="rgb(146,146,149)"/><stop offset="0.93" stop-color="rgb(140,140,143)"/><stop offset="0.975" stop-color="rgb(164,164,167)"/><stop offset="1" stop-color="rgb(111,111,114)"/></linearGradient><linearGradient id="slab1Shade" x1="0" x2="0" y1="450" y2="640" gradientUnits="userSpaceOnUse"><stop offset="0" stop-color="#fff" stop-opacity=".18"/><stop offset=".2" stop-color="#fff" stop-opacity="0"/><stop offset=".55" stop-color="#000" stop-opacity=".13"/><stop offset=".84" stop-color="#fff" stop-opacity=".05"/><stop offset="1" stop-color="#fff" stop-opacity=".24"/></linearGradient><linearGradient id="slab1Face" x1="208" y1="374" x2="816" y2="526" gradientUnits="userSpaceOnUse"><stop offset="0" stop-color="rgb(227,227,230)"/><stop offset=".55" stop-color="rgb(206,206,209)"/><stop offset="1" stop-color="rgb(186,186,189)"/></linearGradient><radialGradient id="slab1Depth" cx="512" cy="456" r="304" gradientUnits="userSpaceOnUse" gradientTransform="translate(512 456) scale(1 0.25) translate(-512 -456)"><stop offset="0" stop-color="#000" stop-opacity=".07"/><stop offset=".72" stop-color="#000" stop-opacity="0"/><stop offset=".93" stop-color="#fff" stop-opacity=".14"/><stop offset="1" stop-color="#fff" stop-opacity=".3"/></radialGradient><radialGradient id="slab1Specular" cx="442" cy="422" r="230" gradientUnits="userSpaceOnUse" gradientTransform="translate(442 422) scale(1 0.26) translate(-442 -422)"><stop offset="0" stop-color="#fff" stop-opacity=".75"/><stop offset="1" stop-color="#fff" stop-opacity="0"/></radialGradient><linearGradient id="slab1Bevel" x1="0" x2="0" y1="374" y2="526" gradientUnits="userSpaceOnUse"><stop offset="0" stop-color="#fff" stop-opacity=".95"/><stop offset=".5" stop-color="#fff" stop-opacity=".35"/><stop offset="1" stop-color="#fff" stop-opacity=".9"/></linearGradient><clipPath id="slab0Body"><path d="M208 286V400A304 76 0 0 0 816 400V286A304 76 0 0 0 208 286Z"/></clipPath><clipPath id="slab0Top"><ellipse cx="512" cy="286" rx="304" ry="76"/></clipPath><linearGradient id="slab0Side" x1="208" x2="816" y1="0" y2="0" gradientUnits="userSpaceOnUse"><stop offset="0" stop-color="rgb(117,117,120)"/><stop offset="0.035" stop-color="rgb(184,184,187)"/><stop offset="0.13" stop-color="rgb(214,214,217)"/><stop offset="0.28" stop-color="rgb(232,232,235)"/><stop offset="0.46" stop-color="rgb(217,217,220)"/><stop offset="0.64" stop-color="rgb(191,191,194)"/><stop offset="0.82" stop-color="rgb(168,168,171)"/><stop offset="0.93" stop-color="rgb(161,161,164)"/><stop offset="0.975" stop-color="rgb(189,189,192)"/><stop offset="1" stop-color="rgb(128,128,131)"/></linearGradient><linearGradient id="slab0Shade" x1="0" x2="0" y1="286" y2="476" gradientUnits="userSpaceOnUse"><stop offset="0" stop-color="#fff" stop-opacity=".18"/><stop offset=".2" stop-color="#fff" stop-opacity="0"/><stop offset=".55" stop-color="#000" stop-opacity=".13"/><stop offset=".84" stop-color="#fff" stop-opacity=".05"/><stop offset="1" stop-color="#fff" stop-opacity=".24"/></linearGradient><linearGradient id="slab0Face" x1="208" y1="210" x2="816" y2="362" gradientUnits="userSpaceOnUse"><stop offset="0" stop-color="rgb(255,255,255)"/><stop offset=".55" stop-color="rgb(237,237,240)"/><stop offset="1" stop-color="rgb(214,214,217)"/></linearGradient><radialGradient id="slab0Depth" cx="512" cy="292" r="304" gradientUnits="userSpaceOnUse" gradientTransform="translate(512 292) scale(1 0.25) translate(-512 -292)"><stop offset="0" stop-color="#000" stop-opacity=".07"/><stop offset=".72" stop-color="#000" stop-opacity="0"/><stop offset=".93" stop-color="#fff" stop-opacity=".14"/><stop offset="1" stop-color="#fff" stop-opacity=".3"/></radialGradient><radialGradient id="slab0Specular" cx="442" cy="258" r="230" gradientUnits="userSpaceOnUse" gradientTransform="translate(442 258) scale(1 0.26) translate(-442 -258)"><stop offset="0" stop-color="#fff" stop-opacity=".75"/><stop offset="1" stop-color="#fff" stop-opacity="0"/></radialGradient><linearGradient id="slab0Bevel" x1="0" x2="0" y1="210" y2="362" gradientUnits="userSpaceOnUse"><stop offset="0" stop-color="#fff" stop-opacity=".95"/><stop offset=".5" stop-color="#fff" stop-opacity=".35"/><stop offset="1" stop-color="#fff" stop-opacity=".9"/></linearGradient></defs><path d="M1024.00 512.00L1023.97 613.39L1023.88 645.78L1023.72 669.32L1023.50 688.48L1023.22 704.92L1022.88 719.47L1022.47 732.61L1022.00 744.64L1021.47 755.78L1020.87 766.18L1020.22 775.94L1019.49 785.16L1018.71 793.91L1017.86 802.23L1016.95 810.17L1015.97 817.78L1014.93 825.07L1013.83 832.08L1012.65 838.83L1011.42 845.34L1010.12 851.63L1008.75 857.70L1007.31 863.58L1005.81 869.27L1004.24 874.78L1002.61 880.13L1000.90 885.33L999.13 890.37L997.29 895.26L995.37 900.02L993.39 904.65L991.33 909.15L989.21 913.53L987.01 917.78L984.73 921.93L982.38 925.96L979.96 929.88L977.46 933.70L974.88 937.42L972.23 941.04L969.49 944.56L966.67 947.99L963.77 951.32L960.79 954.57L957.72 957.72L954.57 960.79L951.32 963.77L947.99 966.67L944.56 969.49L941.04 972.23L937.42 974.88L933.70 977.46L929.88 979.96L925.96 982.38L921.93 984.73L917.78 987.01L913.53 989.21L909.15 991.33L904.65 993.39L900.02 995.37L895.26 997.29L890.37 999.13L885.33 1000.90L880.13 1002.61L874.78 1004.24L869.27 1005.81L863.58 1007.31L857.70 1008.75L851.63 1010.12L845.34 1011.42L838.83 1012.65L832.08 1013.83L825.07 1014.93L817.78 1015.97L810.17 1016.95L802.23 1017.86L793.91 1018.71L785.16 1019.49L775.94 1020.22L766.18 1020.87L755.78 1021.47L744.64 1022.00L732.61 1022.47L719.47 1022.88L704.92 1023.22L688.48 1023.50L669.32 1023.72L645.78 1023.88L613.39 1023.97L512.00 1024.00L410.61 1023.97L378.22 1023.88L354.68 1023.72L335.52 1023.50L319.08 1023.22L304.53 1022.88L291.39 1022.47L279.36 1022.00L268.22 1021.47L257.82 1020.87L248.06 1020.22L238.84 1019.49L230.09 1018.71L221.77 1017.86L213.83 1016.95L206.22 1015.97L198.93 1014.93L191.92 1013.83L185.17 1012.65L178.66 1011.42L172.37 1010.12L166.30 1008.75L160.42 1007.31L154.73 1005.81L149.22 1004.24L143.87 1002.61L138.67 1000.90L133.63 999.13L128.74 997.29L123.98 995.37L119.35 993.39L114.85 991.33L110.47 989.21L106.22 987.01L102.07 984.73L98.04 982.38L94.12 979.96L90.30 977.46L86.58 974.88L82.96 972.23L79.44 969.49L76.01 966.67L72.68 963.77L69.43 960.79L66.28 957.72L63.21 954.57L60.23 951.32L57.33 947.99L54.51 944.56L51.77 941.04L49.12 937.42L46.54 933.70L44.04 929.88L41.62 925.96L39.27 921.93L36.99 917.78L34.79 913.53L32.67 909.15L30.61 904.65L28.63 900.02L26.71 895.26L24.87 890.37L23.10 885.33L21.39 880.13L19.76 874.78L18.19 869.27L16.69 863.58L15.25 857.70L13.88 851.63L12.58 845.34L11.35 838.83L10.17 832.08L9.07 825.07L8.03 817.78L7.05 810.17L6.14 802.23L5.29 793.91L4.51 785.16L3.78 775.94L3.13 766.18L2.53 755.78L2.00 744.64L1.53 732.61L1.12 719.47L0.78 704.92L0.50 688.48L0.28 669.32L0.12 645.78L0.03 613.39L0.00 512.00L0.03 410.61L0.12 378.22L0.28 354.68L0.50 335.52L0.78 319.08L1.12 304.53L1.53 291.39L2.00 279.36L2.53 268.22L3.13 257.82L3.78 248.06L4.51 238.84L5.29 230.09L6.14 221.77L7.05 213.83L8.03 206.22L9.07 198.93L10.17 191.92L11.35 185.17L12.58 178.66L13.88 172.37L15.25 166.30L16.69 160.42L18.19 154.73L19.76 149.22L21.39 143.87L23.10 138.67L24.87 133.63L26.71 128.74L28.63 123.98L30.61 119.35L32.67 114.85L34.79 110.47L36.99 106.22L39.27 102.07L41.62 98.04L44.04 94.12L46.54 90.30L49.12 86.58L51.77 82.96L54.51 79.44L57.33 76.01L60.23 72.68L63.21 69.43L66.28 66.28L69.43 63.21L72.68 60.23L76.01 57.33L79.44 54.51L82.96 51.77L86.58 49.12L90.30 46.54L94.12 44.04L98.04 41.62L102.07 39.27L106.22 36.99L110.47 34.79L114.85 32.67L119.35 30.61L123.98 28.63L128.74 26.71L133.63 24.87L138.67 23.10L143.87 21.39L149.22 19.76L154.73 18.19L160.42 16.69L166.30 15.25L172.37 13.88L178.66 12.58L185.17 11.35L191.92 10.17L198.93 9.07L206.22 8.03L213.83 7.05L221.77 6.14L230.09 5.29L238.84 4.51L248.06 3.78L257.82 3.13L268.22 2.53L279.36 2.00L291.39 1.53L304.53 1.12L319.08 0.78L335.52 0.50L354.68 0.28L378.22 0.12L410.61 0.03L512.00 0.00L613.39 0.03L645.78 0.12L669.32 0.28L688.48 0.50L704.92 0.78L719.47 1.12L732.61 1.53L744.64 2.00L755.78 2.53L766.18 3.13L775.94 3.78L785.16 4.51L793.91 5.29L802.23 6.14L810.17 7.05L817.78 8.03L825.07 9.07L832.08 10.17L838.83 11.35L845.34 12.58L851.63 13.88L857.70 15.25L863.58 16.69L869.27 18.19L874.78 19.76L880.13 21.39L885.33 23.10L890.37 24.87L895.26 26.71L900.02 28.63L904.65 30.61L909.15 32.67L913.53 34.79L917.78 36.99L921.93 39.27L925.96 41.62L929.88 44.04L933.70 46.54L937.42 49.12L941.04 51.77L944.56 54.51L947.99 57.33L951.32 60.23L954.57 63.21L957.72 66.28L960.79 69.43L963.77 72.68L966.67 76.01L969.49 79.44L972.23 82.96L974.88 86.58L977.46 90.30L979.96 94.12L982.38 98.04L984.73 102.07L987.01 106.22L989.21 110.47L991.33 114.85L993.39 119.35L995.37 123.98L997.29 128.74L999.13 133.63L1000.90 138.67L1002.61 143.87L1004.24 149.22L1005.81 154.73L1007.31 160.42L1008.75 166.30L1010.12 172.37L1011.42 178.66L1012.65 185.17L1013.83 191.92L1014.93 198.93L1015.97 206.22L1016.95 213.83L1017.86 221.77L1018.71 230.09L1019.49 238.84L1020.22 248.06L1020.87 257.82L1021.47 268.22L1022.00 279.36L1022.47 291.39L1022.88 304.53L1023.22 319.08L1023.50 335.52L1023.72 354.68L1023.88 378.22L1023.97 410.61Z" fill="url(#tileFill)"/><path d="M1024.00 512.00L1023.97 613.39L1023.88 645.78L1023.72 669.32L1023.50 688.48L1023.22 704.92L1022.88 719.47L1022.47 732.61L1022.00 744.64L1021.47 755.78L1020.87 766.18L1020.22 775.94L1019.49 785.16L1018.71 793.91L1017.86 802.23L1016.95 810.17L1015.97 817.78L1014.93 825.07L1013.83 832.08L1012.65 838.83L1011.42 845.34L1010.12 851.63L1008.75 857.70L1007.31 863.58L1005.81 869.27L1004.24 874.78L1002.61 880.13L1000.90 885.33L999.13 890.37L997.29 895.26L995.37 900.02L993.39 904.65L991.33 909.15L989.21 913.53L987.01 917.78L984.73 921.93L982.38 925.96L979.96 929.88L977.46 933.70L974.88 937.42L972.23 941.04L969.49 944.56L966.67 947.99L963.77 951.32L960.79 954.57L957.72 957.72L954.57 960.79L951.32 963.77L947.99 966.67L944.56 969.49L941.04 972.23L937.42 974.88L933.70 977.46L929.88 979.96L925.96 982.38L921.93 984.73L917.78 987.01L913.53 989.21L909.15 991.33L904.65 993.39L900.02 995.37L895.26 997.29L890.37 999.13L885.33 1000.90L880.13 1002.61L874.78 1004.24L869.27 1005.81L863.58 1007.31L857.70 1008.75L851.63 1010.12L845.34 1011.42L838.83 1012.65L832.08 1013.83L825.07 1014.93L817.78 1015.97L810.17 1016.95L802.23 1017.86L793.91 1018.71L785.16 1019.49L775.94 1020.22L766.18 1020.87L755.78 1021.47L744.64 1022.00L732.61 1022.47L719.47 1022.88L704.92 1023.22L688.48 1023.50L669.32 1023.72L645.78 1023.88L613.39 1023.97L512.00 1024.00L410.61 1023.97L378.22 1023.88L354.68 1023.72L335.52 1023.50L319.08 1023.22L304.53 1022.88L291.39 1022.47L279.36 1022.00L268.22 1021.47L257.82 1020.87L248.06 1020.22L238.84 1019.49L230.09 1018.71L221.77 1017.86L213.83 1016.95L206.22 1015.97L198.93 1014.93L191.92 1013.83L185.17 1012.65L178.66 1011.42L172.37 1010.12L166.30 1008.75L160.42 1007.31L154.73 1005.81L149.22 1004.24L143.87 1002.61L138.67 1000.90L133.63 999.13L128.74 997.29L123.98 995.37L119.35 993.39L114.85 991.33L110.47 989.21L106.22 987.01L102.07 984.73L98.04 982.38L94.12 979.96L90.30 977.46L86.58 974.88L82.96 972.23L79.44 969.49L76.01 966.67L72.68 963.77L69.43 960.79L66.28 957.72L63.21 954.57L60.23 951.32L57.33 947.99L54.51 944.56L51.77 941.04L49.12 937.42L46.54 933.70L44.04 929.88L41.62 925.96L39.27 921.93L36.99 917.78L34.79 913.53L32.67 909.15L30.61 904.65L28.63 900.02L26.71 895.26L24.87 890.37L23.10 885.33L21.39 880.13L19.76 874.78L18.19 869.27L16.69 863.58L15.25 857.70L13.88 851.63L12.58 845.34L11.35 838.83L10.17 832.08L9.07 825.07L8.03 817.78L7.05 810.17L6.14 802.23L5.29 793.91L4.51 785.16L3.78 775.94L3.13 766.18L2.53 755.78L2.00 744.64L1.53 732.61L1.12 719.47L0.78 704.92L0.50 688.48L0.28 669.32L0.12 645.78L0.03 613.39L0.00 512.00L0.03 410.61L0.12 378.22L0.28 354.68L0.50 335.52L0.78 319.08L1.12 304.53L1.53 291.39L2.00 279.36L2.53 268.22L3.13 257.82L3.78 248.06L4.51 238.84L5.29 230.09L6.14 221.77L7.05 213.83L8.03 206.22L9.07 198.93L10.17 191.92L11.35 185.17L12.58 178.66L13.88 172.37L15.25 166.30L16.69 160.42L18.19 154.73L19.76 149.22L21.39 143.87L23.10 138.67L24.87 133.63L26.71 128.74L28.63 123.98L30.61 119.35L32.67 114.85L34.79 110.47L36.99 106.22L39.27 102.07L41.62 98.04L44.04 94.12L46.54 90.30L49.12 86.58L51.77 82.96L54.51 79.44L57.33 76.01L60.23 72.68L63.21 69.43L66.28 66.28L69.43 63.21L72.68 60.23L76.01 57.33L79.44 54.51L82.96 51.77L86.58 49.12L90.30 46.54L94.12 44.04L98.04 41.62L102.07 39.27L106.22 36.99L110.47 34.79L114.85 32.67L119.35 30.61L123.98 28.63L128.74 26.71L133.63 24.87L138.67 23.10L143.87 21.39L149.22 19.76L154.73 18.19L160.42 16.69L166.30 15.25L172.37 13.88L178.66 12.58L185.17 11.35L191.92 10.17L198.93 9.07L206.22 8.03L213.83 7.05L221.77 6.14L230.09 5.29L238.84 4.51L248.06 3.78L257.82 3.13L268.22 2.53L279.36 2.00L291.39 1.53L304.53 1.12L319.08 0.78L335.52 0.50L354.68 0.28L378.22 0.12L410.61 0.03L512.00 0.00L613.39 0.03L645.78 0.12L669.32 0.28L688.48 0.50L704.92 0.78L719.47 1.12L732.61 1.53L744.64 2.00L755.78 2.53L766.18 3.13L775.94 3.78L785.16 4.51L793.91 5.29L802.23 6.14L810.17 7.05L817.78 8.03L825.07 9.07L832.08 10.17L838.83 11.35L845.34 12.58L851.63 13.88L857.70 15.25L863.58 16.69L869.27 18.19L874.78 19.76L880.13 21.39L885.33 23.10L890.37 24.87L895.26 26.71L900.02 28.63L904.65 30.61L909.15 32.67L913.53 34.79L917.78 36.99L921.93 39.27L925.96 41.62L929.88 44.04L933.70 46.54L937.42 49.12L941.04 51.77L944.56 54.51L947.99 57.33L951.32 60.23L954.57 63.21L957.72 66.28L960.79 69.43L963.77 72.68L966.67 76.01L969.49 79.44L972.23 82.96L974.88 86.58L977.46 90.30L979.96 94.12L982.38 98.04L984.73 102.07L987.01 106.22L989.21 110.47L991.33 114.85L993.39 119.35L995.37 123.98L997.29 128.74L999.13 133.63L1000.90 138.67L1002.61 143.87L1004.24 149.22L1005.81 154.73L1007.31 160.42L1008.75 166.30L1010.12 172.37L1011.42 178.66L1012.65 185.17L1013.83 191.92L1014.93 198.93L1015.97 206.22L1016.95 213.83L1017.86 221.77L1018.71 230.09L1019.49 238.84L1020.22 248.06L1020.87 257.82L1021.47 268.22L1022.00 279.36L1022.47 291.39L1022.88 304.53L1023.22 319.08L1023.50 335.52L1023.72 354.68L1023.88 378.22L1023.97 410.61Z" fill="url(#tileSheen)"/><g clip-path="url(#tile)"><path d="M208 286V728A304 76 0 0 0 816 728V286A304 76 0 0 0 208 286Z" fill="#fff" opacity=".14" filter="url(#aura)"/><ellipse cx="512" cy="830" rx="314" ry="44" fill="#fff" opacity=".07" filter="url(#blur14)"/><path d="M208 614V728A304 76 0 0 0 816 728V614A304 76 0 0 1 208 614Z" fill="url(#slab2Side)"/><path d="M208 614V728A304 76 0 0 0 816 728V614A304 76 0 0 1 208 614Z" fill="url(#slab2Shade)"/><g clip-path="url(#slab2Body)"><path d="M208 716A304 76 0 0 0 816 716" fill="none" stroke="#fff" stroke-opacity=".3" stroke-width="20" filter="url(#blur6)" mask="url(#fadeMask)"/><path d="M208 726A304 76 0 0 0 816 726" fill="none" stroke="#fff" stroke-opacity=".75" stroke-width="4" filter="url(#blur2)" mask="url(#fadeMask)"/><path d="M211 614V728" stroke="#fff" stroke-opacity=".35" stroke-width="4" filter="url(#blur2)"/><path d="M813 614V728" stroke="#fff" stroke-opacity=".22" stroke-width="4" filter="url(#blur2)"/></g><ellipse cx="512" cy="614" rx="304" ry="76" fill="url(#slab2Face)"/><ellipse cx="512" cy="614" rx="304" ry="76" fill="url(#slab2Depth)"/><ellipse cx="512" cy="614" rx="304" ry="76" fill="url(#slab2Specular)"/><g clip-path="url(#slab2Top)"><ellipse cx="512" cy="617" rx="290" ry="68" fill="none" stroke="#000" stroke-opacity=".1" stroke-width="10" filter="url(#blur6)"/></g><ellipse cx="512" cy="614" rx="301" ry="74" fill="none" stroke="url(#slab2Bevel)" stroke-width="5" filter="url(#blur2)"/><g clip-path="url(#slab2Top)"><ellipse cx="512" cy="568" rx="302" ry="76" fill="#000" opacity=".82" filter="url(#blur6)"/></g><path d="M208 450V564A304 76 0 0 0 816 564V450A304 76 0 0 1 208 450Z" fill="url(#slab1Side)"/><path d="M208 450V564A304 76 0 0 0 816 564V450A304 76 0 0 1 208 450Z" fill="url(#slab1Shade)"/><g clip-path="url(#slab1Body)"><path d="M208 552A304 76 0 0 0 816 552" fill="none" stroke="#fff" stroke-opacity=".3" stroke-width="20" filter="url(#blur6)" mask="url(#fadeMask)"/><path d="M208 562A304 76 0 0 0 816 562" fill="none" stroke="#fff" stroke-opacity=".75" stroke-width="4" filter="url(#blur2)" mask="url(#fadeMask)"/><path d="M211 450V564" stroke="#fff" stroke-opacity=".35" stroke-width="4" filter="url(#blur2)"/><path d="M813 450V564" stroke="#fff" stroke-opacity=".22" stroke-width="4" filter="url(#blur2)"/></g><ellipse cx="512" cy="450" rx="304" ry="76" fill="url(#slab1Face)"/><ellipse cx="512" cy="450" rx="304" ry="76" fill="url(#slab1Depth)"/><ellipse cx="512" cy="450" rx="304" ry="76" fill="url(#slab1Specular)"/><g clip-path="url(#slab1Top)"><ellipse cx="512" cy="453" rx="290" ry="68" fill="none" stroke="#000" stroke-opacity=".1" stroke-width="10" filter="url(#blur6)"/></g><ellipse cx="512" cy="450" rx="301" ry="74" fill="none" stroke="url(#slab1Bevel)" stroke-width="5" filter="url(#blur2)"/><g clip-path="url(#slab1Top)"><ellipse cx="512" cy="404" rx="302" ry="76" fill="#000" opacity=".82" filter="url(#blur6)"/></g><path d="M208 286V400A304 76 0 0 0 816 400V286A304 76 0 0 1 208 286Z" fill="url(#slab0Side)"/><path d="M208 286V400A304 76 0 0 0 816 400V286A304 76 0 0 1 208 286Z" fill="url(#slab0Shade)"/><g clip-path="url(#slab0Body)"><path d="M208 388A304 76 0 0 0 816 388" fill="none" stroke="#fff" stroke-opacity=".3" stroke-width="20" filter="url(#blur6)" mask="url(#fadeMask)"/><path d="M208 398A304 76 0 0 0 816 398" fill="none" stroke="#fff" stroke-opacity=".75" stroke-width="4" filter="url(#blur2)" mask="url(#fadeMask)"/><path d="M211 286V400" stroke="#fff" stroke-opacity=".35" stroke-width="4" filter="url(#blur2)"/><path d="M813 286V400" stroke="#fff" stroke-opacity=".22" stroke-width="4" filter="url(#blur2)"/></g><ellipse cx="512" cy="286" rx="304" ry="76" fill="url(#slab0Face)"/><ellipse cx="512" cy="286" rx="304" ry="76" fill="url(#slab0Depth)"/><ellipse cx="512" cy="286" rx="304" ry="76" fill="url(#slab0Specular)"/><g clip-path="url(#slab0Top)"><ellipse cx="512" cy="289" rx="290" ry="68" fill="none" stroke="#000" stroke-opacity=".1" stroke-width="10" filter="url(#blur6)"/></g><ellipse cx="512" cy="286" rx="301" ry="74" fill="none" stroke="url(#slab0Bevel)" stroke-width="5" filter="url(#blur2)"/></g><path d="M1022.50 512.00L1022.47 613.10L1022.38 645.39L1022.22 668.86L1022.00 687.97L1021.72 704.36L1021.38 718.87L1020.97 731.96L1020.51 743.96L1019.98 755.07L1019.38 765.43L1018.73 775.17L1018.01 784.36L1017.23 793.08L1016.38 801.38L1015.47 809.30L1014.50 816.88L1013.46 824.15L1012.36 831.15L1011.19 837.88L1009.95 844.37L1008.66 850.63L1007.29 856.69L1005.86 862.55L1004.37 868.22L1002.80 873.72L1001.17 879.06L999.47 884.23L997.70 889.26L995.86 894.14L993.96 898.89L991.98 903.50L989.93 907.99L987.81 912.35L985.61 916.59L983.35 920.73L981.01 924.75L978.59 928.66L976.10 932.47L973.53 936.17L970.88 939.78L968.15 943.29L965.34 946.71L962.45 950.04L959.48 953.27L956.42 956.42L953.27 959.48L950.04 962.45L946.71 965.34L943.29 968.15L939.78 970.88L936.17 973.53L932.47 976.10L928.66 978.59L924.75 981.01L920.73 983.35L916.59 985.61L912.35 987.81L907.99 989.93L903.50 991.98L898.89 993.96L894.14 995.86L889.26 997.70L884.23 999.47L879.06 1001.17L873.72 1002.80L868.22 1004.37L862.55 1005.86L856.69 1007.29L850.63 1008.66L844.37 1009.95L837.88 1011.19L831.15 1012.36L824.15 1013.46L816.88 1014.50L809.30 1015.47L801.38 1016.38L793.08 1017.23L784.36 1018.01L775.17 1018.73L765.43 1019.38L755.07 1019.98L743.96 1020.51L731.96 1020.97L718.87 1021.38L704.36 1021.72L687.97 1022.00L668.86 1022.22L645.39 1022.38L613.10 1022.47L512.00 1022.50L410.90 1022.47L378.61 1022.38L355.14 1022.22L336.03 1022.00L319.64 1021.72L305.13 1021.38L292.04 1020.97L280.04 1020.51L268.93 1019.98L258.57 1019.38L248.83 1018.73L239.64 1018.01L230.92 1017.23L222.62 1016.38L214.70 1015.47L207.12 1014.50L199.85 1013.46L192.85 1012.36L186.12 1011.19L179.63 1009.95L173.37 1008.66L167.31 1007.29L161.45 1005.86L155.78 1004.37L150.28 1002.80L144.94 1001.17L139.77 999.47L134.74 997.70L129.86 995.86L125.11 993.96L120.50 991.98L116.01 989.93L111.65 987.81L107.41 985.61L103.27 983.35L99.25 981.01L95.34 978.59L91.53 976.10L87.83 973.53L84.22 970.88L80.71 968.15L77.29 965.34L73.96 962.45L70.73 959.48L67.58 956.42L64.52 953.27L61.55 950.04L58.66 946.71L55.85 943.29L53.12 939.78L50.47 936.17L47.90 932.47L45.41 928.66L42.99 924.75L40.65 920.73L38.39 916.59L36.19 912.35L34.07 907.99L32.02 903.50L30.04 898.89L28.14 894.14L26.30 889.26L24.53 884.23L22.83 879.06L21.20 873.72L19.63 868.22L18.14 862.55L16.71 856.69L15.34 850.63L14.05 844.37L12.81 837.88L11.64 831.15L10.54 824.15L9.50 816.88L8.53 809.30L7.62 801.38L6.77 793.08L5.99 784.36L5.27 775.17L4.62 765.43L4.02 755.07L3.49 743.96L3.03 731.96L2.62 718.87L2.28 704.36L2.00 687.97L1.78 668.86L1.62 645.39L1.53 613.10L1.50 512.00L1.53 410.90L1.62 378.61L1.78 355.14L2.00 336.03L2.28 319.64L2.62 305.13L3.03 292.04L3.49 280.04L4.02 268.93L4.62 258.57L5.27 248.83L5.99 239.64L6.77 230.92L7.62 222.62L8.53 214.70L9.50 207.12L10.54 199.85L11.64 192.85L12.81 186.12L14.05 179.63L15.34 173.37L16.71 167.31L18.14 161.45L19.63 155.78L21.20 150.28L22.83 144.94L24.53 139.77L26.30 134.74L28.14 129.86L30.04 125.11L32.02 120.50L34.07 116.01L36.19 111.65L38.39 107.41L40.65 103.27L42.99 99.25L45.41 95.34L47.90 91.53L50.47 87.83L53.12 84.22L55.85 80.71L58.66 77.29L61.55 73.96L64.52 70.73L67.58 67.58L70.73 64.52L73.96 61.55L77.29 58.66L80.71 55.85L84.22 53.12L87.83 50.47L91.53 47.90L95.34 45.41L99.25 42.99L103.27 40.65L107.41 38.39L111.65 36.19L116.01 34.07L120.50 32.02L125.11 30.04L129.86 28.14L134.74 26.30L139.77 24.53L144.94 22.83L150.28 21.20L155.78 19.63L161.45 18.14L167.31 16.71L173.37 15.34L179.63 14.05L186.12 12.81L192.85 11.64L199.85 10.54L207.12 9.50L214.70 8.53L222.62 7.62L230.92 6.77L239.64 5.99L248.83 5.27L258.57 4.62L268.93 4.02L280.04 3.49L292.04 3.03L305.13 2.62L319.64 2.28L336.03 2.00L355.14 1.78L378.61 1.62L410.90 1.53L512.00 1.50L613.10 1.53L645.39 1.62L668.86 1.78L687.97 2.00L704.36 2.28L718.87 2.62L731.96 3.03L743.96 3.49L755.07 4.02L765.43 4.62L775.17 5.27L784.36 5.99L793.08 6.77L801.38 7.62L809.30 8.53L816.88 9.50L824.15 10.54L831.15 11.64L837.88 12.81L844.37 14.05L850.63 15.34L856.69 16.71L862.55 18.14L868.22 19.63L873.72 21.20L879.06 22.83L884.23 24.53L889.26 26.30L894.14 28.14L898.89 30.04L903.50 32.02L907.99 34.07L912.35 36.19L916.59 38.39L920.73 40.65L924.75 42.99L928.66 45.41L932.47 47.90L936.17 50.47L939.78 53.12L943.29 55.85L946.71 58.66L950.04 61.55L953.27 64.52L956.42 67.58L959.48 70.73L962.45 73.96L965.34 77.29L968.15 80.71L970.88 84.22L973.53 87.83L976.10 91.53L978.59 95.34L981.01 99.25L983.35 103.27L985.61 107.41L987.81 111.65L989.93 116.01L991.98 120.50L993.96 125.11L995.86 129.86L997.70 134.74L999.47 139.77L1001.17 144.94L1002.80 150.28L1004.37 155.78L1005.86 161.45L1007.29 167.31L1008.66 173.37L1009.95 179.63L1011.19 186.12L1012.36 192.85L1013.46 199.85L1014.50 207.12L1015.47 214.70L1016.38 222.62L1017.23 230.92L1018.01 239.64L1018.73 248.83L1019.38 258.57L1019.98 268.93L1020.51 280.04L1020.97 292.04L1021.38 305.13L1021.72 319.64L1022.00 336.03L1022.22 355.14L1022.38 378.61L1022.47 410.90Z" fill="none" stroke="url(#tileRim)" stroke-width="3"/></svg>
